<svg width="105" height="65" viewBox="0 0 105 65" fill="none" xmlns="http://www.w3.org/2000/svg">
<path d="M46.6752 17.4084C59.2825 12.8101 71.2984 10.3581 80.5247 10.0998C85.1406 9.97058 89.0291 10.3922 91.9363 11.3482C94.8503 12.3064 96.6942 13.771 97.3878 15.6727C98.0813 17.5744 97.6134 19.8822 96.0006 22.4915C94.3915 25.0946 91.6876 27.9208 88.0724 30.7937C80.8463 36.5361 70.0733 42.3958 57.466 46.9941C44.8589 51.5923 32.8428 54.0443 23.6165 54.3027C19.0005 54.4319 15.1112 54.0106 12.204 53.0546C9.29003 52.0964 7.44616 50.6318 6.75253 48.7301C6.05894 46.8285 6.52694 44.5206 8.1397 41.9114C9.74876 39.3081 12.4535 36.4818 16.0688 33.6088C23.2949 27.8665 34.068 22.0066 46.6752 17.4084Z" stroke="#2CFF85"/>
<path d="M49.0429 16.749C62.2122 14.1688 74.4633 13.6165 83.6174 14.7971C88.1972 15.3878 91.9727 16.4094 94.6957 17.8062C97.4251 19.2062 99.0185 20.9399 99.4078 22.9264C99.7969 24.9128 98.9756 27.1197 96.9764 29.4462C94.9818 31.7672 91.8706 34.1373 87.8526 36.4125C79.8209 40.9604 68.2674 45.0733 55.0981 47.6536C41.9289 50.2339 29.6776 50.7852 20.5234 49.6045C15.9436 49.0138 12.1674 47.9934 9.44441 46.5966C6.71507 45.1966 5.1216 43.4629 4.73235 41.4764C4.34314 39.49 5.16459 37.2831 7.16375 34.9566C9.15832 32.6355 12.27 30.2645 16.2883 27.9892C24.32 23.4413 35.8737 19.3293 49.0429 16.749Z" stroke="#2CFF85"/>
</svg>
