<svg width="512" height="512" viewBox="0 0 512 512" fill="none" xmlns="http://www.w3.org/2000/svg">
<path fill-rule="evenodd" clip-rule="evenodd" d="M66 0.8L61.5 1.7L60 4.9L59.3 2.7L58.6 5L57.4 52L63 56.1L89.4 58.5L96.4 65.9L97.7 68.8L89.7 59.3L98.6 76L99.6 121L65.5 146.2L69.6 142L66.6 143.6L50.2 159.1L72.3 176.9L98.6 190.2L100.8 197.1L99.7 193.8L99.1 200L85.9 193.1L47.1 167.9L56.7 177.2L43.5 164.7L29.3 179.9L10.3 212L0.8 241.6L0.6 279.4L11.5 312L26.6 336.7L40.5 354L52.9 342.3L99 318.2L98.7 325.9L59 349L50.3 359.1L51.1 363.1L74.3 382.7L109.9 403.7L129.4 441.6L139.2 455.3L156.3 471.9L140.7 457L142.3 459.3L157.2 474.3L181.4 491.8L222.8 507.9L253.2 511.9L286.9 509.6L317.7 498.9L346 480.9L373.2 452.8L378 446L368.6 456.1L383.6 437.6L401.2 404.1L436.4 383.3L466 357.2L461.1 352.4L465.7 358.3L459.9 362.8L464.8 358L458.9 350.4L441.9 338L406.5 321.6L369.4 311.1L360.3 344.7L346.2 377L324.5 408.7L304.1 424.4L313.6 424.8L344.9 419.3L347.2 419.6L346.4 421.3L323.4 439.4L300.5 447.7L271.9 447.5L253.8 441.7L235.5 430.2L248.9 441.3L237.3 433L229.4 421.9L258.9 424.4V299.4L218.5 300.3V293.2L258.9 291.1V221.6L221.5 220.8L219.3 222.4L217 217.3L218.2 218.6L218.5 213.2L258.9 214.4L258.4 91.3L257.5 89.4L252.9 89.5L219.4 95.2L218.7 88.4L221.1 72.4L228.4 59L255.3 55.6L260.4 52V4.7L256.3 0L66 0.8ZM309.3 2.1L306.9 4.3L308.2 53.3L311 55.4L333.9 57.7L340.8 63.1L345.3 71.7L346.4 99.2L309.3 93.4L320.9 103.2L336 121L344 134.7L359 169.1L368.9 202.2L421.1 182.5L454.3 160.7L458.6 155L450.3 147.1L403.1 118.3L403.8 82.8L406.4 67.9L413.6 57.6L439.4 56L445 52V4.5L440.7 0H311.6L309.3 2.1ZM259.5 17.7L259.4 29.5L257 3L259.4 7.3L259.5 17.7ZM312.2 1.9L309.2 4.2L312.2 1.9ZM442.4 3.4L444 49.4L442.9 7.5L440.1 1.7L442.4 3.4ZM430.5 28.5V40.5L402.1 42L389 52.5L388.8 51L379.6 65.1L376.7 76.3L364.5 53.9L354.2 45.1L340.8 40.7L320.9 41L321.4 16.6H430.5V28.5ZM245.9 29.1V40.7L207.9 43.1L189.7 52.6L178.5 69.4L171.1 91.1L167.9 143.8L168.7 362.8L177.4 402.4L189.3 428.7L205.9 449.7L228.2 464.9L253.6 472.3L287.5 472.9L318.7 463L336.3 454.2L341.7 448.8L338.6 452.7L344.7 448.9L334.8 460.2L337.8 456.3L307.9 472.7L284 478.7L245.1 478L210.9 466.2L185.6 447L175.7 435L166.5 417.9L158.9 396.1L152.6 367.3L151.5 139.9L149.5 97.6L140.4 70.6L124.7 49.9L106.5 41.8L72.8 40.5V17.4H245.9V29.1ZM309.1 48.7L311.7 53.8L326.4 55.5L309.3 52.9L308 24.5L309.1 48.7ZM320.5 33.8L320.3 27.4L320.5 33.8ZM333.1 42.1L325.4 42L333.1 42.1ZM428.8 42L427 41.8L428.8 42ZM106.7 43.2L104.2 42.5L106.7 43.2ZM347.4 43.2L345.3 42.4L347.4 43.2ZM406.3 42.9L404.2 42.7L406.3 42.9ZM114.4 45.7L111.3 44.6L114.4 45.7ZM354.2 46.2L350.5 44.2L354.2 46.2ZM101.5 45.3L99.7 45.1L101.5 45.3ZM105.3 47.7L118.6 53.1L134 66.5L134.9 68.3L131.7 64.9L139.2 81.7L144.5 101.8L147.4 362.9L154 398.8L163.2 424.3L172 439.5L183 451.1L176.1 445.1L179.3 449L206.1 470.2L238.1 482.3L269.8 485.4L300.9 480.9L328.6 468.9L346.2 452.8L342.4 458.1L344.5 456.7L371.7 426.9L363.8 442.6L342.5 463.8L326.8 476.7L307.1 487.4L287.2 494.1L260.5 497.1L235 495.3L210.5 488.8L187.2 477.8L164.8 463.5L161.4 460L166.3 464L147.8 445.3L135 421.2L123.5 392.8L116.6 365.2L113.9 75.1L106.9 58.7L97.4 47.1L105.3 47.7ZM111.3 47.3L108.8 46.6L111.3 47.3ZM209.3 47.3L207.2 48.1L209.3 47.3ZM222.3 47.7L211.9 60.2L216.7 51.8L215.3 53.1L208.6 64L205.5 79.5L204.3 361.5L206.8 400.3L216.7 427.6L230.7 445L250.9 457L267.6 462.5L288.8 463.8L305.5 461.6L290.6 466.9L266.1 468L248.6 465.9L228.7 458.9L211.9 448.3L216.6 453.4L213.4 450.8L193.7 428.2L201.5 437.8L183.4 403.4L174.6 367L172.7 355.1V214.5L174.8 100.1L186.3 63.7L204.8 50.2L222.3 47.7ZM125 51.4L118.5 47.6L125 51.4ZM354.1 52.2L362.6 61.3L369.2 75.3L372 106.9L362.1 104.4L359 66.1L346.3 47.7L354.1 52.2ZM355.4 50.7L350.6 47.6L355.4 50.7ZM400.9 50.9L397.8 55.1L404.2 49.4L395.2 58.3L390.5 67.9L388 100.9L388.6 109.7L389.8 92.5L390 108.7L387.1 111.9L377.9 108.6L380 81.3L388.6 57.7L394.7 51.1L403.8 47.3L400.9 50.9ZM59.6 51.2L59.4 48.5L59.6 51.2ZM119.2 51.2L115.6 49.2L119.2 51.2ZM203.2 49.3L201.2 50.2L203.2 49.3ZM257.3 53.4L256 54.7L258.3 49.8L257.3 53.4ZM360.7 51.5L361.7 53.1L358.9 49.8L360.7 51.5ZM443.5 51L440.7 54.8L435.3 55.3L443.5 51ZM105.8 59.1L106.8 61.2L98.4 50.2L105.8 59.1ZM129.2 55.2L131.4 58.1L126.2 52.3L129.2 55.2ZM69.9 54.8L77 55.5L60.6 53.3L69.9 54.8ZM359.7 54.6L358.1 53.2L359.7 54.6ZM126.2 56.9L128.4 59.8L123.2 54L126.2 56.9ZM352 55.4L350.4 54.1L352 55.4ZM241.9 55.4L238.9 55.2L241.9 55.4ZM251.8 55.3L250 55.1L251.8 55.3ZM387.8 55.1L384.4 58.5L387.8 55.1ZM422.8 55.1L416.7 56L422.8 55.1ZM86.9 57.1L85.1 55.8L86.9 57.1ZM188.7 55.9L186.4 58.1L188.7 55.9ZM237.5 55.9L232.6 56.9L237.5 55.9ZM339.3 57.5L343.1 63.4L334.6 55.9L339.3 57.5ZM397.7 57.6L395.4 59.8L397.7 57.6ZM411.4 59.2L407.3 63.5L411.4 59.2ZM227.6 60L224.2 63.5L227.6 60ZM139.8 71.3L142.9 78.5L132.9 60.2L139.8 71.3ZM367.3 66L368.1 67.6L364.1 61L367.3 66ZM109 64.8L110 67.7L107.5 62.3L109 64.8ZM381.2 65.2H381.2ZM407.6 64.2L405.3 66.4L407.6 64.2ZM222.1 67.6L220.1 70.1L223.5 64.7L222.1 67.6ZM370.3 65.6H370.3ZM181.3 66.9H181.3ZM383.1 67.6L381.9 69.4L383.6 65.6L383.1 67.6ZM208.6 68.6L209 66.7L208.6 68.6ZM358.7 68.5L357.5 66.5L358.7 68.5ZM179.6 70.6H179.6ZM181.7 72.6L180.5 74.4L182.2 70.6L181.7 72.6ZM347.1 72.4L346.9 70.7L347.1 72.4ZM139.3 75.3L140.4 79.9L138 73.2L139.3 75.3ZM177.1 76.4L176 78.6L177.6 73.9L177.1 76.4ZM402.8 75.7L402.6 74L402.8 75.7ZM112.2 78.2L112 75.9L112.2 78.2ZM402.1 80.3L401.9 77.6L402.1 80.3ZM360.1 94L360 83L360.1 94ZM377.9 83.6L378.1 80.5L377.9 83.6ZM172.7 90.2L172.9 87.2L172.7 90.2ZM175.5 89.8L175.3 88.1L175.5 89.8ZM266.5 151.5V214.1L321.8 210.6L360.5 203.5L351.4 168.5L336.9 136.4L320.1 113.9L300.8 98.7L285.6 92.2L266.5 88.8V151.5ZM147.4 93.5L146.6 91L147.4 93.5ZM269.8 91.1L268.1 91.4L267.6 153.1L267.3 90.5L269.8 91.1ZM145.1 95.5L143.9 91.6L145.1 95.5ZM248.8 91.8L246.9 91.6L248.8 91.8ZM278.5 91.8L276.7 91.6L278.5 91.8ZM243.4 92.6L241.6 92.4L243.4 92.6ZM287.5 93.9L282.3 92.6L287.5 93.9ZM229.5 94.6L226.4 95.2L229.5 94.6ZM314 94.3L311.4 94.1L314 94.3ZM257.9 158L257.9 162.7V110.7L257.9 158ZM326 96.3L321.8 95.8L326 96.3ZM295.9 97.8L294.1 96.5L295.9 97.8ZM315.4 97.7L313.1 96.4L315.4 97.7ZM335.2 98.8L333.1 98L335.2 98.8ZM146.5 104.4L146.4 101.7L146.5 104.4ZM149.6 107.7L149.4 105L149.6 107.7ZM367.6 107.1L365.1 106.4L367.6 107.1ZM315 110.4L316 112.1L313.1 108.8L315 110.4ZM330.2 112.1L332.8 115.4L326.9 108.7L330.2 112.1ZM385.9 112.9L382.8 111.8L385.9 112.9ZM321.8 117L325.2 121.2L317.7 112.9L321.8 117ZM418 127.6L406.9 121.6L418 127.6ZM332.8 131.5L343.3 151.9L325.7 122.5L332.8 131.5ZM342.1 127.9L342.6 129.4L340.2 125.6L342.1 127.9ZM426.6 132.5L423 130.6L426.6 132.5ZM431.7 136L429.8 134.7L431.7 136ZM348.5 139.4L349.3 141.9L347 137L348.5 139.4ZM150.4 249.2L150.3 257.5V169.6L150.4 249.2ZM168.7 287.4L168.6 298.2V183.3L168.7 287.4ZM457.2 156.3L453 160.6L457.2 156.3ZM53 160.8L51.4 159.5L53 160.8ZM148.1 172L148 162.8L148.1 172ZM458 167.2L419.5 191.4L369.9 210L372.8 258.7L370.8 301.4L426.1 321.6L447 333L472.1 351.1L480 343.7L471.9 350.3L464.5 343.5L472.5 348.7L481.3 341.9L492.7 325.7L503.8 303.6L510.8 277.5L511.8 252.4L506.2 226.4L492.3 195.2L467.3 162.9L465.2 161.3L458 167.2ZM359.6 164.8L358.1 162L359.6 164.8ZM56.8 164.1L55.2 162.8L56.8 164.1ZM468.7 165.8L471.3 168.9L465.2 164L454.9 171.4L465.6 162.7L468.7 165.8ZM59.9 166.6L58.3 165.3L59.9 166.6ZM72.4 175.8L61.3 168.1L72.4 175.8ZM439.3 170.7L435.1 173.1L440.5 169.4L439.3 170.7ZM432.8 174.7L423.7 179.7L432.8 174.7ZM364 178.9L362.8 176.9L364 178.9ZM445.8 178.3L438.5 183L447.3 176.9L445.8 178.3ZM86.5 183.9L77.3 178.8L86.5 183.9ZM416.8 183L413.8 184.9L416.8 183ZM366.3 186.9L365.4 184.6L366.3 186.9ZM412.2 185.4L410.2 186.3L412.2 185.4ZM73.5 188.1L70.5 186.2L73.5 188.1ZM356.4 188.5L355.5 186.3L356.4 188.5ZM432.8 186.3L425.2 190.5L432.8 186.3ZM408.4 187.1L406.4 188L408.4 187.1ZM404.5 188.8L392.6 193.1L404.5 188.8ZM490.8 194.5L488.1 190.4L490.8 194.5ZM80.8 192.2L78.1 191L80.8 192.2ZM357.9 194.8L357.2 192.2L357.9 194.8ZM418.3 193.8L415.3 195.7L418.3 193.8ZM86.9 195.7L85.1 194.4L86.9 195.7ZM385.5 195.4L383.5 196.3L385.5 195.4ZM94.9 199.7L88.8 196.3L94.9 199.7ZM413 196.7L410.9 197.5L413 196.7ZM377.1 198.4L375 199.1L377.1 198.4ZM407.6 198.7L405.7 199.6L407.6 198.7ZM359.6 201.7L358.8 203.3L359.3 200L359.6 201.7ZM398.5 202.5L396.4 203.3L398.5 202.5ZM353.9 204.2L351.4 204.9L353.9 204.2ZM393.5 204.1L389.7 205.5L393.5 204.1ZM386.3 206.7L384.2 207.4L386.3 206.7ZM332.7 208L330.9 207.8L332.7 208ZM380.9 208.3L378.2 209L380.9 208.3ZM327.3 208.8L325.5 208.6L327.3 208.8ZM319.7 209.7L317.9 209.5L319.7 209.7ZM311.3 210.5L309.5 210.3L311.3 210.5ZM373.3 210.3L371 211L373.3 210.3ZM351.2 213.8L310.6 219.3L266.5 221.9V291.1L313.8 293.7L363.3 300L365.8 257.6L363.6 219.2L361.5 211.9L351.2 213.8ZM361.8 214.4L358.2 213.9L361.7 212.6L361.8 214.4ZM372.3 218.9L372.1 216.2L372.3 218.9ZM333.4 218.8L331.6 218.6L333.4 218.8ZM319.7 220.5L317.9 220.3L319.7 220.5ZM310.6 221.3L308.7 221.1L310.6 221.3ZM363.2 227.6L363 224L363.2 227.6ZM505.1 226.2L504 224.2L505.1 226.2ZM258.1 259V290.5L250.9 290.2L257.4 289.6L257.7 227.4L258.1 259ZM509.4 242.4L506.3 230.2L509.4 242.4ZM374.6 253.8L374.5 247.4L374.6 253.8ZM272.4 289.9L276.8 290.2L267.3 290.5L267.6 256.1L268.1 289.6L272.4 289.9ZM510.4 271.2L510.2 268L510.4 271.2ZM509.6 279.9L509.4 277.6L509.6 279.9ZM506.3 293.7L504.7 297.6L507.3 289.1L506.3 293.7ZM311.3 291.8L309.5 291.6L311.3 291.8ZM319.7 292.7L317.9 292.5L319.7 292.7ZM362.6 297.9L360.8 299.5L362.9 292.5L362.6 297.9ZM327.3 293.5L325.5 293.3L327.3 293.5ZM334.2 294.3L332.4 294.1L334.2 294.3ZM217.5 299L217.3 295.4L217.5 299ZM344.1 296L342.3 295.8L344.1 296ZM354.4 297.7L351.8 297.5L354.4 297.7ZM266.8 299.6L266.5 424.4L281.5 422.7L297.4 417.6L312.4 407.8L324.9 395.8L345.2 363.7L356.6 332.8L361.9 310.4L320.8 302.2L266.8 299.6ZM258.1 361.9V423.3L254.6 423L257.4 422.4V301.4L250.1 300.8L258.1 300.5V361.9ZM272.4 301.1L268 301.4L268.2 413.5L270 423.1L267.3 423.3V300.5L276.8 300.8L272.4 301.1ZM377.8 302.7L373.6 301.6L377.8 302.7ZM205.3 311L205.2 304.1L205.3 311ZM311.3 302.6L309.5 302.4L311.3 302.6ZM319.7 303.5L317.9 303.3L319.7 303.5ZM384.8 304.6L382.6 303.9L384.8 304.6ZM335.9 305.4L330.9 304.9L335.9 305.4ZM393.1 307.1L391 306.4L393.1 307.1ZM347.9 307.6L346.1 307.4L347.9 307.6ZM500.2 310L498.6 312.6L501.1 307.1L500.2 310ZM398.5 308.8L396.4 308L398.5 308.8ZM406.1 311.3L404 310.5L406.1 311.3ZM372.9 312.8L369.9 313L372.9 312.8ZM414.5 314.6L412.4 313.8L414.5 314.6ZM386.3 316.2L383.5 315.6L386.3 316.2ZM97.2 316.6L78.9 326.6L97.2 316.6ZM358.8 319.3L359 316.3L358.8 319.3ZM496 318.1L487.3 332L496.7 316.3L496 318.1ZM391.6 317.9L389.5 317.2L391.6 317.9ZM422.9 317.9L420.8 317.2L422.9 317.9ZM439.4 326.1L426.7 320L439.4 326.1ZM100.8 325.2L100.6 321.9L100.8 325.2ZM404.6 322L402.5 321.3L404.6 322ZM409.2 323.7L407 323L409.2 323.7ZM356.7 328.9L357 326.6L356.7 328.9ZM421.4 328.7L419.3 327.9L421.4 328.7ZM365.7 333.7L364.5 336.8L366.2 329.8L365.7 333.7ZM428.6 332.7L426.8 331.4L428.6 332.7ZM456.7 337.2L463.8 343L448.2 331.3L456.7 337.2ZM88 332.4L85 334.3L88 332.4ZM67 333.6L59 338.3L67 333.6ZM487 333.2L484.7 335.3L487 333.2ZM83.4 334.9L75.8 339.1L83.4 334.9ZM354.2 338.1L353.1 341L354.7 334.7L354.2 338.1ZM447.5 343.1L449.2 344.7L433.6 334.8L447.5 343.1ZM70.9 343.5L65.9 345.9L70.9 343.5ZM360.3 350.6L357.6 357.5L362.4 343.1L360.3 350.6ZM50.5 345L52.8 343.8L50.5 345ZM351.3 346.7L351.7 344.7L351.3 346.7ZM46 348.2L42.4 350.7L46 348.2ZM53.3 353.6L48.2 359.2L49.8 362.7L49.3 358.9L58 350.3L53.3 353.6ZM349.2 352.4H349.2ZM345.3 361.5L343.7 364L346.2 358.6L345.3 361.5ZM354.3 365.3L352 369.2L356.3 360.5L354.3 365.3ZM459.5 363.1L453 368.7L459.5 363.1ZM54.6 365L53 363.6L54.6 365ZM58.4 368.3L56.8 367L58.4 368.3ZM61.4 370.8L59.8 369.5L61.4 370.8ZM171.7 374.1L171.5 371.4L171.7 374.1ZM338.8 374.3L334.9 380.4L340.3 371.1L338.8 374.3ZM64.5 373.3L62.9 372L64.5 373.3ZM117.7 376.8L116.4 373.7L117.7 376.8ZM67.5 375.8L65.9 374.5L67.5 375.8ZM153.4 378.3L153.2 375.6L153.4 378.3ZM176.4 384.3L174.3 375.8L176.4 384.3ZM173.4 381.4L172.1 378.2L173.4 381.4ZM348 379.6L345.2 381.8L348 379.6ZM152.1 382.4L151.8 384.9L151.4 379.3L152.1 382.4ZM119.2 382.2L118 380.2L119.2 382.2ZM436.7 381.7L430.8 385.6L438.2 380.2L436.7 381.7ZM333.6 383L331.4 385.1L333.6 383ZM174.8 388.6L173.9 386.3L174.8 388.6ZM331.4 386.2L327.9 389.7L331.4 386.2ZM98.3 395.8L88 390.6L98.3 395.8ZM322.6 396.8L313.9 405.5L328.3 390.1L322.6 396.8ZM338.3 393.2L328.6 404.9L339.6 391L338.3 393.2ZM157.4 395.9L156 391.4L157.4 395.9ZM176.3 394.4L175.4 392.1L176.3 394.4ZM419.1 393L414.5 395.5L419.1 393ZM409.9 397.9L401.5 402.2L409.9 397.9ZM156.5 402.7L155.6 400.4L156.5 402.7ZM179.5 403.8L178.1 401.1L179.5 403.8ZM181.8 402.7L180.5 401.3L181.8 402.7ZM181.1 408L179.6 405.2L181.1 408ZM160.2 413.9L157.5 406.9L160.2 413.9ZM395.3 413.7L393.3 417.1L396.6 410L395.3 413.7ZM319.2 413.7L316.9 415.8L319.2 413.7ZM316.1 416.2L309.2 421.3L316.1 416.2ZM189.1 419.2L189.9 421.6L187.5 416.7L189.1 419.2ZM293.2 418.3L290.5 419L293.2 418.3ZM341.7 418.3L339.2 419L341.7 418.3ZM235 420.5L233.2 420.3L235 420.5ZM168.1 424.1L169.3 427.5L166.2 420.8L168.1 424.1ZM238.1 421.3L236.3 421.1L238.1 421.3ZM281.4 421.6L276.7 422.2L281.4 421.6ZM246.5 422.2L243.5 422.1L246.5 422.2ZM191.8 424.1L192.2 425.8L190.5 422.5L191.8 424.1ZM306.3 424.3L304.8 424.4L306.3 424.3ZM318.2 423L316.4 422.8L318.2 423ZM344.6 424.3L327.6 438.9L345.8 422.6L344.6 424.3ZM389.4 425.6L386.4 429.8L389.4 425.6ZM137.8 428.9L142.3 437L135.6 425.8L137.8 428.9ZM221.7 432.8L224.7 437L217.5 426.5L221.7 432.8ZM171.2 429.9L171.6 431.6L169.9 428.3L171.2 429.9ZM127.5 436.1L128.4 438L123.9 430.2L127.5 436.1ZM385.6 432.2L382.6 436.5L385.6 432.2ZM196.7 437.2L198.4 439.8L193.5 433.3L196.7 437.2ZM174.3 440.1L174.8 441.6L170.5 435L174.3 440.1ZM355.5 444.1L348.4 452.5L364.6 434.9L355.5 444.1ZM179.6 442L181 444.1L177.3 440L179.6 442ZM325.3 440.3L317.2 444.4L325.3 440.3ZM256.2 444.7L254.4 443.5L256.2 444.7ZM131.5 444.8L133.7 447.3L131.5 444.8ZM209.4 447.2L207.8 445.8L209.4 447.2ZM311.5 446.5L309.4 447.3L311.5 446.5ZM241.7 450.9L236.1 447.3L241.7 450.9ZM207.4 449L208.4 450.7L205.6 447.4L207.4 449ZM306.2 448.2L303.4 448.8L306.2 448.2ZM187.9 451.1L190.2 454L185 448.2L187.9 451.1ZM278.9 450.4L276.3 450.2L278.9 450.4ZM283.3 450.2L281.8 451L283.3 450.2ZM294.5 450.4L292.7 450.2L294.5 450.4ZM355 453.7L330.6 476.2L358 450L355 453.7ZM220 458.8L210.9 452.4L220 458.8ZM343.6 452.7L341.3 454.8L343.6 452.7ZM192.6 455.5L191.1 454L192.6 455.5ZM259.3 458.9L248.6 454.6L259.3 458.9ZM229.5 461.4L219.2 455.2L229.5 461.4ZM198.6 460.4L194.1 456.8L198.6 460.4ZM362.2 464L356.9 470.6L368.7 457.8L362.2 464ZM338.5 460.7L335.2 463.9L341.9 458.2L338.5 460.7ZM266.9 460.7L264.4 460L266.9 460.7ZM299.7 461.5L295.8 462L299.7 461.5ZM332.9 461L330.6 463.1L332.9 461ZM235.2 466.2L226.9 462.7L235.2 466.2ZM243.3 466.3L233.3 463.2L243.3 466.3ZM314.6 463.5L304.9 467L314.6 463.5ZM328.3 464.4L323.8 466.9L328.3 464.4ZM213.6 469.6L205.5 465.2L213.6 469.6ZM301.6 465.6L298.8 466.3L301.6 465.6ZM206.5 468.6L210.1 471.1L202.3 466.6L206.5 468.6ZM246.5 467L244.7 466.8L246.5 467ZM329.8 466.9L319 472.1L329.8 466.9ZM241.3 468.1L239.2 467.4L241.3 468.1ZM247.2 469.5L245.4 469.3L247.2 469.5ZM261 469.5L259.2 469.3L261 469.5ZM315.7 471.5L310.4 473.8L319.6 469.1L315.7 471.5ZM256.4 471.1L254.6 470.9L256.4 471.1ZM220.1 474.8L213.1 472.3L220.1 474.8ZM262.5 472L260.7 471.8L262.5 472ZM284.6 472L282.8 471.8L284.6 472ZM350.4 475.7L340.1 484L353.4 472.5L350.4 475.7ZM164.3 478.6L158.2 473.4L164.3 478.6ZM224.9 473.9L222.5 473.3L224.9 473.9ZM317.6 473.4L315.7 474.3L317.6 473.4ZM183 476.8L184.5 478.2L178.4 473.8L183 476.8ZM313.8 475.1L306.4 477.8L313.8 475.1ZM232.2 476.4L230.1 475.7L232.2 476.4ZM302.4 476.4L298.2 477.8L302.4 476.4ZM238.7 478.1L236.2 477.4L238.7 478.1ZM230.7 478.9L228.6 478.2L230.7 478.9ZM326.8 479L315.6 485L326.8 479ZM194.5 483.7L187.9 480.2L194.5 483.7ZM257.2 481.1L255.3 480.9L257.2 481.1ZM243.1 482L240.9 481.8L243.1 482ZM248.8 482.7L246.9 482.5L248.8 482.7ZM287.7 482.7L285.9 482.5L287.7 482.7ZM280 483.6L278.2 483.4L280 483.6ZM181.5 490.4L174.2 485.8L181.5 490.4ZM202.4 487.7L199.4 485.9L202.4 487.7ZM335.2 487.6L332.2 489.5L335.2 487.6ZM211.2 490.5L208.7 489.9L211.2 490.5ZM305.4 490L303.4 490.9L305.4 490ZM331.4 490.1L328.4 492L331.4 490.1ZM187.9 493.4L189.2 494.6L185.1 492.4L187.9 493.4ZM295.2 494L290.3 495.2L298.7 492.4L295.2 494ZM221.1 493.9L218.7 493.2L221.1 493.9ZM323.7 494.3L317 497.9L323.7 494.3ZM196 497.9L194.1 496.6L196 497.9ZM239.6 497.7L237.8 497.5L239.6 497.7ZM278.5 497.7L276.7 497.5L278.5 497.7ZM246.5 498.5L244.7 498.3L246.5 498.5ZM272.4 498.5L270.6 498.3L272.4 498.5ZM207 501.7L208.8 502.8L203.5 500.7L207 501.7ZM310.8 500.8L308.8 501.7L310.8 500.8ZM299.9 505.2L298.1 505L299.9 505.2ZM237.3 509.3L235.5 509.1L237.3 509.3ZM281.6 509.3L279.7 509.1L281.6 509.3ZM244.2 510.1L242.4 509.9L244.2 510.1ZM274.7 510.1L272.9 509.9L274.7 510.1Z" fill="#CDCDCD"/>
</svg>
